<?xml version="1.0" encoding="utf-8"?>
<!-- Generator: Adobe Illustrator 28.3.0, SVG Export Plug-In . SVG Version: 6.00 Build 0)  -->
<svg version="1.1" xmlns="http://www.w3.org/2000/svg" xmlns:xlink="http://www.w3.org/1999/xlink" x="0px" y="0px"
	 viewBox="0 0 885 175" style="enable-background:new 0 0 885 175;" xml:space="preserve">
<style type="text/css">
	.st0{fill:#00FFF2;}
	.st1{fill:#FFFFFF;}
</style>
<g id="Glow">
</g>
<g id="White-Inner">
	<g>
		<g>
			
				<image style="overflow:visible;opacity:0.5;" width="816" height="112" xlink:href="8947E4594F076AC8.png"  transform="matrix(1 0 0 1 34.5 31.5)">
			</image>
			<g>
				<g>
					<g>
						<path class="st0" d="M94.3,127H89c-0.5,0-0.9-0.2-1.3-0.6c-0.3-0.4-0.4-0.9-0.4-1.3l3.2-18.6H71.2l-3.3,19.2
							c-0.1,0.8-0.8,1.4-1.6,1.4h-5.3c-0.5,0-0.9-0.2-1.3-0.6c-0.3-0.4-0.4-0.9-0.4-1.3l3.2-18.6H51.3c-0.9,0-1.6-0.7-1.6-1.6v-5.2
							c0-0.9,0.7-1.6,1.6-1.6h12.8L68,75.4H55.7c-0.9,0-1.6-0.7-1.6-1.6v-5.2c0-0.9,0.7-1.6,1.6-1.6h13.8l3.2-18.7
							c0.1-0.8,0.8-1.4,1.6-1.4h5.3c0.5,0,0.9,0.2,1.3,0.6c0.3,0.4,0.4,0.9,0.4,1.3L78,67h19.4l3.2-18.7c0.1-0.8,0.8-1.4,1.6-1.4
							h5.3c0.5,0,0.9,0.2,1.3,0.6c0.3,0.4,0.4,0.9,0.4,1.3L106,67h11.2c0.9,0,1.6,0.7,1.6,1.6v5.2c0,0.9-0.7,1.6-1.6,1.6h-12.7
							L100.7,98h12.2c0.9,0,1.6,0.7,1.6,1.6v5.2c0,0.9-0.7,1.6-1.6,1.6H99.2l-3.3,19.2C95.8,126.4,95.1,127,94.3,127z M91,123.7h1.9
							l3.3-19.2c0.1-0.8,0.8-1.4,1.6-1.4h13.4v-1.9H98.7c-0.5,0-0.9-0.2-1.3-0.6c-0.3-0.4-0.4-0.9-0.4-1.3l4.5-25.9
							c0.1-0.8,0.8-1.4,1.6-1.4h12.4v-1.9h-11.5c-0.5,0-0.9-0.2-1.3-0.6c-0.3-0.4-0.4-0.9-0.4-1.3l3.1-18.2h-1.9l-3.2,18.7
							c-0.1,0.8-0.8,1.4-1.6,1.4H76.1c-0.5,0-0.9-0.2-1.3-0.6c-0.3-0.4-0.4-0.9-0.4-1.3l3.1-18.2h-1.9l-3.2,18.7
							c-0.1,0.8-0.8,1.4-1.6,1.4H57.3v1.9h12.6c0.5,0,0.9,0.2,1.3,0.6c0.3,0.4,0.4,0.9,0.4,1.3L67.1,100c-0.1,0.8-0.8,1.4-1.6,1.4
							H52.9v1.9h11.6c0.5,0,0.9,0.2,1.3,0.6c0.3,0.4,0.4,0.9,0.4,1.3L63,123.7h1.9l3.3-19.2c0.1-0.8,0.8-1.4,1.6-1.4h22.7
							c0.5,0,0.9,0.2,1.3,0.6c0.3,0.4,0.4,0.9,0.4,1.3L91,123.7z M93.4,101.3H70.7c-0.5,0-0.9-0.2-1.3-0.6c-0.3-0.4-0.4-0.9-0.4-1.3
							l4.5-25.9c0.1-0.8,0.8-1.4,1.6-1.4h22.7c0.5,0,0.9,0.2,1.3,0.6c0.3,0.4,0.4,0.9,0.4,1.3L95.1,100
							C94.9,100.8,94.2,101.3,93.4,101.3z M72.7,98h19.4L96,75.4H76.6L72.7,98z"/>
					</g>
					<g>
						<path class="st0" d="M139.9,127h-5.7c-0.9,0-1.6-0.7-1.6-1.6V48.5c0-0.9,0.7-1.6,1.6-1.6h54.1c0.9,0,1.6,0.7,1.6,1.6v5.2
							c0,0.9-0.7,1.6-1.6,1.6h-46.8v28.4h41.8c0.9,0,1.6,0.7,1.6,1.6v5.2c0,0.9-0.7,1.6-1.6,1.6h-41.8v33.2
							C141.5,126.3,140.8,127,139.9,127z M135.8,123.7h2.4V90.6c0-0.9,0.7-1.6,1.6-1.6h41.8v-1.9h-41.8c-0.9,0-1.6-0.7-1.6-1.6V53.7
							c0-0.9,0.7-1.6,1.6-1.6h46.8v-1.9h-50.8V123.7z"/>
					</g>
					<g>
						<path class="st0" d="M228.1,128.3c-4.4,0-8.5-0.8-12.2-2.5c-3.7-1.7-6.9-3.9-9.6-6.7c-2.7-2.8-4.8-6.1-6.3-9.7
							c-1.5-3.7-2.3-7.7-2.3-11.8v-0.2c0-4.1,0.8-8.1,2.3-11.8c1.5-3.7,3.6-7,6.4-9.9c2.7-2.8,6-5.1,9.7-6.8
							c3.7-1.7,7.8-2.5,12.2-2.5c4.4,0,8.5,0.8,12.2,2.5c3.6,1.7,6.9,3.9,9.6,6.7c2.7,2.8,4.8,6.1,6.3,9.7c1.5,3.7,2.3,7.7,2.3,11.8
							c0,4.4-0.8,8.3-2.3,12l0,0c-1.5,3.7-3.6,7-6.4,9.9c-2.7,2.8-6,5.1-9.7,6.8C236.6,127.5,232.5,128.3,228.1,128.3z M228.4,69.7
							c-3.9,0-7.6,0.7-10.9,2.2c-3.3,1.5-6.2,3.5-8.7,6.1c-2.4,2.5-4.4,5.5-5.7,8.8c-1.3,3.3-2,6.9-2,10.6v0.2c0,3.7,0.7,7.3,2,10.6
							c1.3,3.3,3.2,6.2,5.6,8.7c2.4,2.5,5.3,4.5,8.6,6c3.2,1.5,6.9,2.2,10.8,2.2s7.6-0.7,10.9-2.2c3.3-1.5,6.2-3.5,8.7-6.1
							c2.4-2.5,4.4-5.5,5.7-8.8c1.3-3.3,2-6.9,2-10.6c0-3.9-0.7-7.5-2-10.8s-3.2-6.2-5.6-8.7c-2.4-2.5-5.3-4.5-8.6-6
							C235.9,70.5,232.3,69.7,228.4,69.7z M254.9,108.6L254.9,108.6L254.9,108.6z M228.4,123.2c-3.4,0-6.7-0.7-9.8-2
							c-3-1.3-5.7-3.2-7.9-5.5c-2.2-2.3-4-5.1-5.3-8.2c-1.2-3.1-1.9-6.5-1.9-10.1c0-3.7,0.6-7,1.8-10.1c1.2-3.1,2.9-5.8,5.1-8.1
							c2.2-2.3,4.8-4.2,7.8-5.5c6-2.7,13.5-2.7,19.6-0.1c3,1.3,5.7,3.2,7.9,5.5c2.2,2.3,4,5.1,5.3,8.2c1.2,3.1,1.9,6.5,1.9,10.1v0.2
							c0,3.5-0.6,6.8-1.8,9.9c-1.2,3.1-2.9,5.8-5.1,8.1c-2.2,2.3-4.8,4.2-7.8,5.5C235.2,122.5,231.9,123.2,228.4,123.2z M228.1,74.9
							c-3.1,0-5.9,0.6-8.5,1.8c-2.6,1.2-4.9,2.8-6.8,4.8c-1.9,2-3.4,4.4-4.4,7.1c-1.1,2.7-1.6,5.6-1.6,8.7c0,3.3,0.6,6.3,1.6,9.1
							c1.1,2.7,2.6,5.2,4.6,7.2c1.9,2,4.2,3.6,6.9,4.8c5.3,2.3,11.8,2.3,17,0c2.6-1.2,4.9-2.8,6.8-4.8c1.9-2,3.4-4.4,4.4-7.1
							c1.1-2.7,1.6-5.6,1.6-8.7v-0.2c0-3.1-0.6-6.1-1.6-8.8c-1.1-2.7-2.6-5.2-4.6-7.2c-1.9-2-4.2-3.6-6.9-4.8
							C234,75.5,231.1,74.9,228.1,74.9z"/>
					</g>
					<g>
						<path class="st0" d="M279,127h-5.4c-0.9,0-1.6-0.7-1.6-1.6v-56c0-0.9,0.7-1.6,1.6-1.6h5.4c0.9,0,1.6,0.7,1.6,1.6V79
							c0.4-0.6,0.8-1.1,1.2-1.7c1.8-2.2,3.8-4.2,6-5.8c2.3-1.6,4.8-2.8,7.4-3.6c2.7-0.8,5.5-1.2,8.5-1.1c0.9,0,1.6,0.8,1.6,1.6v5.9
							c0,0.9-0.7,1.6-1.6,1.6h-0.5c-3,0-5.9,0.6-8.6,1.7c-2.7,1.1-5.1,2.8-7.2,5c-2.1,2.2-3.8,5-5,8.2c-1.2,3.3-1.9,7.1-1.9,11.4
							v22.9C280.6,126.3,279.9,127,279,127z M275.2,123.7h2.1v-21.3c0-4.7,0.7-9,2.1-12.6c1.4-3.7,3.3-6.8,5.7-9.3
							c2.4-2.5,5.2-4.5,8.3-5.8c2.8-1.1,5.7-1.8,8.8-1.9v-2.6c-2,0.1-4,0.4-5.8,1c-2.3,0.7-4.5,1.8-6.5,3.2c-2,1.4-3.8,3.1-5.4,5.1
							c-1.6,2-2.9,4.2-4,6.6c-0.3,0.7-1.1,1.1-1.8,0.9c-0.8-0.2-1.3-0.8-1.3-1.6V71h-2.1V123.7z"/>
					</g>
					<g>
						<path class="st0" d="M338.4,128.3c-3.9,0-7.6-0.7-11.1-2.2c-3.5-1.5-6.7-3.6-9.3-6.3c-2.7-2.7-4.8-6-6.4-9.8
							c-1.5-3.8-2.3-8-2.3-12.6c0-4.4,0.7-8.4,2.1-12.2c1.4-3.7,3.4-7,5.9-9.8c2.5-2.8,5.5-5,8.9-6.6c3.4-1.6,7.2-2.5,11.2-2.5
							c4.2,0,8,0.8,11.4,2.4c3.3,1.6,6.2,3.8,8.6,6.6c2.4,2.8,4.2,6.1,5.5,9.8c1.3,3.7,1.9,7.8,1.9,12.1v1.2c0,0.3,0,0.7-0.1,1.3
							c-0.1,0.8-0.8,1.4-1.6,1.4h-44.6c0.3,2.6,1,4.9,2,6.9c1.2,2.5,2.8,4.7,4.6,6.4c1.8,1.7,3.9,3.1,6.2,4c2.3,0.9,4.8,1.4,7.4,1.4
							c4.1,0,7.6-0.8,10.4-2.3c2.9-1.6,5.5-3.6,7.7-5.9c0.6-0.6,1.6-0.7,2.3-0.1l3.7,3.3c0.3,0.3,0.5,0.7,0.6,1.2
							c0,0.4-0.1,0.9-0.4,1.2c-3,3.2-6.4,5.9-10.1,8C348.8,127.3,344,128.3,338.4,128.3z M337.5,69.7c-3.5,0-6.8,0.7-9.8,2.1
							c-3,1.4-5.7,3.4-7.9,5.9c-2.2,2.5-4,5.4-5.3,8.8c-1.3,3.3-1.9,7-1.9,10.8c0,4.4,0.7,8.2,2.1,11.6c1.4,3.4,3.3,6.3,5.6,8.7
							c2.4,2.4,5.1,4.3,8.3,5.6c3.1,1.3,6.4,2,9.9,2c5,0,9.3-0.9,12.7-2.8c3-1.6,5.7-3.7,8.1-6.1L358,115c-2.2,2.1-4.7,3.9-7.4,5.4
							c-3.3,1.8-7.3,2.7-12,2.7c-3,0-5.9-0.5-8.6-1.6c-2.7-1.1-5.2-2.6-7.3-4.7c-2.1-2-3.9-4.5-5.3-7.3c-1.4-2.9-2.2-6.2-2.5-9.9
							c0-0.5,0.1-0.9,0.4-1.2c0.3-0.3,0.7-0.5,1.2-0.5h44.9v-0.5c0-4-0.6-7.7-1.7-11.1c-1.1-3.3-2.8-6.3-4.9-8.7
							c-2.1-2.4-4.6-4.4-7.5-5.8C344.5,70.4,341.2,69.7,337.5,69.7z M357.5,96.4h-40.8c-0.5,0-0.9-0.2-1.2-0.5
							c-0.3-0.3-0.5-0.8-0.4-1.2c0.2-3.2,1-6.3,2.2-9.2c1.2-2.8,2.8-5.3,4.8-7.4c1.9-2.1,4.2-3.8,6.9-4.9c2.6-1.2,5.5-1.8,8.5-1.8
							c3.5,0,6.6,0.7,9.2,2c2.6,1.3,4.9,3.1,6.6,5.3c1.8,2.2,3.2,4.7,4.1,7.4c1,2.7,1.6,5.6,1.8,8.6c0,0.5-0.1,0.9-0.4,1.2
							C358.4,96.2,357.9,96.4,357.5,96.4z M318.5,93.1h37.2c-0.3-2.1-0.8-4.1-1.4-6c-0.8-2.4-2-4.6-3.6-6.4
							c-1.5-1.8-3.4-3.3-5.6-4.4c-2.2-1.1-4.8-1.6-7.7-1.6c-2.5,0-4.9,0.5-7.1,1.5c-2.2,1-4.2,2.4-5.8,4.2c-1.7,1.8-3.1,4-4.2,6.5
							C319.4,88.8,318.8,90.9,318.5,93.1z"/>
					</g>
					<g>
						<path class="st0" d="M400.2,127.5h-4.6c-0.7,0-1.2-0.4-1.5-1l-25.1-56.4c-0.2-0.5-0.2-1.1,0.1-1.6c0.3-0.5,0.8-0.8,1.4-0.8
							h6.3c0.7,0,1.3,0.4,1.5,1l19.7,46.4l19.9-46.4c0.3-0.6,0.9-1,1.5-1h6c0.6,0,1.1,0.3,1.4,0.8c0.3,0.5,0.4,1.1,0.1,1.6
							l-25.1,56.4C401.4,127.1,400.8,127.5,400.2,127.5z M396.6,124.2h2.5L422.8,71h-2.4l-21,49c-0.3,0.6-0.9,1-1.5,1c0,0,0,0,0,0
							c-0.7,0-1.3-0.4-1.5-1L375.6,71H373L396.6,124.2z"/>
					</g>
					<g>
						<path class="st0" d="M460.4,128.3c-3.9,0-7.6-0.7-11.1-2.2c-3.5-1.5-6.7-3.6-9.3-6.3c-2.7-2.7-4.8-6-6.4-9.8
							c-1.5-3.8-2.3-8-2.3-12.6c0-4.4,0.7-8.4,2.1-12.2c1.4-3.7,3.4-7,5.9-9.8c2.5-2.8,5.5-5,8.9-6.6c3.4-1.6,7.2-2.5,11.2-2.5
							c4.2,0,8,0.8,11.4,2.4c3.3,1.6,6.2,3.8,8.6,6.6c2.4,2.8,4.2,6.1,5.5,9.8c1.3,3.7,1.9,7.8,1.9,12.1v1.2c0,0.3,0,0.7-0.1,1.2
							c-0.1,0.8-0.8,1.4-1.6,1.4h-44.6c0.3,2.6,1,4.9,2,6.9c1.2,2.5,2.8,4.7,4.6,6.4c1.8,1.7,3.9,3.1,6.2,4c2.3,0.9,4.8,1.4,7.4,1.4
							c4.1,0,7.6-0.8,10.4-2.3c2.9-1.6,5.5-3.6,7.7-5.9c0.6-0.6,1.6-0.7,2.3-0.1l3.7,3.3c0.3,0.3,0.5,0.7,0.6,1.2
							c0,0.4-0.1,0.9-0.4,1.2c-3,3.2-6.4,5.9-10.1,8C470.8,127.3,466,128.3,460.4,128.3z M459.5,69.7c-3.5,0-6.8,0.7-9.8,2.1
							c-3,1.4-5.7,3.4-7.9,5.9c-2.2,2.5-4,5.4-5.3,8.8c-1.3,3.3-1.9,7-1.9,10.8c0,4.4,0.7,8.2,2.1,11.6c1.4,3.4,3.3,6.3,5.6,8.7
							c2.4,2.4,5.1,4.3,8.3,5.6c3.1,1.3,6.4,2,9.9,2c5,0,9.3-0.9,12.7-2.8c3-1.7,5.7-3.7,8.1-6.1L480,115c-2.2,2.1-4.7,3.9-7.4,5.4
							c-3.3,1.8-7.3,2.7-12,2.7c-3,0-5.9-0.5-8.6-1.6c-2.7-1.1-5.2-2.6-7.3-4.7c-2.1-2-3.9-4.5-5.3-7.3c-1.4-2.9-2.2-6.2-2.5-9.9
							c0-0.5,0.1-0.9,0.4-1.2c0.3-0.3,0.7-0.5,1.2-0.5h44.9v-0.5c0-4-0.6-7.7-1.7-11.1c-1.1-3.3-2.8-6.3-4.9-8.7
							c-2.1-2.4-4.6-4.4-7.5-5.8C466.5,70.4,463.1,69.7,459.5,69.7z M479.4,96.4h-40.8c-0.5,0-0.9-0.2-1.2-0.5
							c-0.3-0.3-0.5-0.8-0.4-1.2c0.2-3.2,1-6.3,2.2-9.2c1.2-2.8,2.8-5.3,4.8-7.4c1.9-2.1,4.2-3.8,6.9-4.9c2.6-1.2,5.5-1.8,8.5-1.8
							c3.5,0,6.6,0.7,9.2,2c2.6,1.3,4.8,3.1,6.6,5.3c1.8,2.2,3.2,4.7,4.1,7.4c1,2.7,1.6,5.6,1.8,8.6c0,0.5-0.1,0.9-0.4,1.2
							C480.3,96.2,479.9,96.4,479.4,96.4z M440.4,93.1h37.2c-0.3-2.1-0.8-4.1-1.4-6c-0.8-2.4-2-4.6-3.6-6.4
							c-1.5-1.8-3.4-3.3-5.6-4.4c-2.2-1.1-4.8-1.6-7.7-1.6c-2.5,0-4.9,0.5-7.1,1.5c-2.2,1-4.2,2.4-5.8,4.2c-1.7,1.8-3.1,4-4.2,6.5
							C441.3,88.8,440.7,90.9,440.4,93.1z"/>
					</g>
					<g>
						<path class="st0" d="M506.2,127h-5.4c-0.9,0-1.6-0.7-1.6-1.6v-56c0-0.9,0.7-1.6,1.6-1.6h5.4c0.9,0,1.6,0.7,1.6,1.6V79
							c0.4-0.6,0.8-1.1,1.2-1.7c1.8-2.2,3.8-4.2,6-5.8c2.3-1.6,4.8-2.8,7.4-3.6c2.7-0.8,5.6-1.2,8.5-1.1c0.9,0,1.6,0.8,1.6,1.6v5.9
							c0,0.9-0.7,1.6-1.6,1.6h-0.5c-3,0-5.9,0.6-8.6,1.7c-2.7,1.1-5.1,2.8-7.2,5c-2.1,2.2-3.8,5-5,8.2c-1.2,3.3-1.9,7.1-1.9,11.4
							v22.9C507.9,126.3,507.1,127,506.2,127z M502.5,123.7h2.1v-21.3c0-4.7,0.7-9,2.1-12.6c1.4-3.7,3.3-6.8,5.7-9.3
							c2.4-2.5,5.2-4.5,8.3-5.8c2.8-1.1,5.7-1.8,8.8-1.9v-2.6c-2,0.1-4,0.4-5.8,1c-2.3,0.7-4.5,1.8-6.5,3.2c-2,1.4-3.8,3.1-5.4,5.1
							c-1.6,2-2.9,4.2-4,6.6c-0.3,0.7-1.1,1.1-1.8,0.9c-0.8-0.2-1.3-0.8-1.3-1.6V71h-2.1V123.7z"/>
					</g>
					<g>
						<path class="st0" d="M622.2,127.6h-4.6c-0.7,0-1.3-0.5-1.6-1.1L595,64.3l-20.9,62.1c-0.2,0.7-0.9,1.1-1.6,1.1h-4.6
							c-0.7,0-1.3-0.4-1.6-1.1l-27.9-77.4c-0.2-0.5-0.1-1.1,0.2-1.5c0.3-0.4,0.8-0.7,1.3-0.7h6.4c0.7,0,1.3,0.4,1.6,1.1l22.5,63.8
							l21-64c0.2-0.7,0.9-1.1,1.6-1.1h4.4c0.7,0,1.3,0.5,1.6,1.1l21,64L642.6,48c0.2-0.7,0.9-1.1,1.6-1.1h5.9c0.5,0,1,0.3,1.3,0.7
							c0.3,0.4,0.4,1,0.2,1.5l-27.9,77.4C623.5,127.1,622.9,127.6,622.2,127.6z M618.7,124.3h2.3l26.7-74.1h-2.4l-23.8,67.3
							c-0.2,0.7-0.9,1-1.6,1.1c-0.7,0-1.3-0.5-1.5-1.1L596.3,50h-2l-22.1,67.5c-0.2,0.7-0.8,1.1-1.5,1.1c-0.7,0-1.3-0.4-1.6-1.1
							l-23.8-67.3h-2.9l26.7,74.1h2.3l22.1-65.6c0.2-0.7,0.9-1.1,1.6-1.1c0.7,0,1.3,0.5,1.6,1.1L618.7,124.3z"/>
					</g>
					<g>
						<path class="st0" d="M682.3,128.3c-3.9,0-7.6-0.7-11.1-2.2c-3.5-1.5-6.7-3.6-9.3-6.3c-2.7-2.7-4.8-6-6.4-9.8
							c-1.5-3.8-2.3-8-2.3-12.6c0-4.4,0.7-8.5,2.1-12.2c1.4-3.7,3.4-7,5.9-9.8c2.5-2.8,5.5-5,8.9-6.6c3.4-1.6,7.2-2.5,11.2-2.5
							c4.2,0,8,0.8,11.4,2.4c3.3,1.6,6.2,3.8,8.6,6.6c2.4,2.8,4.2,6.1,5.5,9.8c1.3,3.7,1.9,7.8,1.9,12.1v1.2c0,0.3,0,0.7-0.1,1.3
							c-0.1,0.8-0.8,1.4-1.6,1.4h-44.6c0.3,2.6,1,4.9,2,6.9c1.2,2.5,2.8,4.7,4.6,6.4c1.8,1.7,3.9,3.1,6.2,4c2.3,0.9,4.8,1.4,7.4,1.4
							c4.1,0,7.6-0.8,10.4-2.3c2.9-1.6,5.5-3.6,7.7-5.9c0.6-0.6,1.6-0.7,2.3-0.1l3.7,3.3c0.3,0.3,0.5,0.7,0.6,1.2
							c0,0.4-0.1,0.9-0.4,1.2c-3,3.2-6.4,5.9-10.1,8C692.7,127.3,687.9,128.3,682.3,128.3z M681.3,69.7c-3.5,0-6.9,0.7-9.8,2.1
							c-3,1.4-5.7,3.4-7.9,5.9c-2.2,2.5-4,5.4-5.3,8.8c-1.3,3.3-1.9,7-1.9,10.8c0,4.4,0.7,8.2,2.1,11.6c1.4,3.4,3.3,6.3,5.6,8.7
							c2.4,2.4,5.1,4.3,8.3,5.6c3.1,1.3,6.4,2,9.9,2c5,0,9.3-0.9,12.7-2.8c3-1.6,5.7-3.7,8.1-6.1l-1.3-1.1c-2.2,2.1-4.7,3.9-7.4,5.4
							c-3.3,1.8-7.3,2.7-12,2.7c-3,0-5.9-0.5-8.6-1.6c-2.7-1.1-5.2-2.6-7.3-4.7c-2.1-2-3.9-4.5-5.3-7.3c-1.4-2.9-2.2-6.2-2.5-9.9
							c0-0.5,0.1-0.9,0.4-1.2c0.3-0.3,0.7-0.5,1.2-0.5h44.9v-0.5c0-4-0.6-7.7-1.7-11.1c-1.1-3.3-2.8-6.3-4.9-8.7
							c-2.1-2.4-4.6-4.4-7.5-5.8C688.4,70.4,685,69.7,681.3,69.7z M701.3,96.4h-40.8c-0.5,0-0.9-0.2-1.2-0.5s-0.5-0.8-0.4-1.2
							c0.2-3.2,1-6.3,2.2-9.2c1.2-2.8,2.8-5.3,4.8-7.4c1.9-2.1,4.2-3.8,6.9-4.9c2.6-1.2,5.5-1.8,8.5-1.8c3.5,0,6.6,0.7,9.2,2
							c2.6,1.3,4.9,3.1,6.6,5.3c1.8,2.2,3.2,4.7,4.1,7.4c1,2.7,1.6,5.6,1.8,8.6c0,0.5-0.1,0.9-0.4,1.2
							C702.2,96.2,701.8,96.4,701.3,96.4z M662.3,93.1h37.2c-0.3-2.1-0.8-4.1-1.4-6c-0.8-2.4-2.1-4.6-3.6-6.4
							c-1.5-1.8-3.4-3.3-5.6-4.4c-2.2-1.1-4.8-1.6-7.7-1.6c-2.5,0-4.9,0.5-7.1,1.5c-2.2,1-4.2,2.4-5.8,4.2c-1.7,1.8-3.1,4-4.2,6.5
							C663.2,88.8,662.6,90.9,662.3,93.1z"/>
					</g>
					<g>
						<path class="st0" d="M770.7,127h-5.4c-0.9,0-1.6-0.7-1.6-1.6V92.1c0-5.3-1.4-9.6-4.2-12.8c-2.8-3.1-6.7-4.7-11.9-4.7
							c-2.5,0-4.9,0.5-7,1.4c-2.1,0.9-4,2.2-5.6,3.8c-1.6,1.6-2.9,3.5-3.8,5.8c-0.9,2.2-1.4,4.8-1.4,7.5v32.4c0,0.9-0.7,1.6-1.6,1.6
							h-5.4c-0.9,0-1.6-0.7-1.6-1.6v-56c0-0.9,0.7-1.6,1.6-1.6h5.4c0.9,0,1.6,0.7,1.6,1.6v5.3c1.5-1.7,3.2-3.2,5.1-4.6
							c3.5-2.5,8-3.7,13.5-3.7c3.7,0,7.1,0.6,10.1,1.8c3,1.2,5.6,3,7.7,5.2c2.1,2.2,3.7,4.9,4.7,7.9c1,3,1.6,6.3,1.6,9.8v34.3
							C772.3,126.3,771.6,127,770.7,127z M767,123.7h2.1V91.1c0-3.2-0.5-6.1-1.4-8.7c-0.9-2.6-2.3-4.8-4-6.7c-1.8-1.9-4-3.3-6.5-4.4
							c-2.6-1-5.5-1.6-8.8-1.6c-4.8,0-8.6,1-11.6,3.1c-3,2.1-5.4,4.7-7.2,7.8c-0.4,0.6-1.1,1-1.9,0.8c-0.7-0.2-1.2-0.8-1.2-1.6V71
							h-2.1v52.7h2.1V93c0-3.1,0.5-6,1.6-8.7c1.1-2.6,2.6-5,4.5-6.9c1.9-1.9,4.1-3.4,6.7-4.5c2.5-1.1,5.3-1.6,8.3-1.6
							c6.2,0,11,1.9,14.4,5.8c3.3,3.8,5,8.8,5,15V123.7z"/>
					</g>
					<g>
						<path class="st0" d="M807,128.3c-2.8,0-5.5-0.4-8.2-1.2c-2.7-0.8-5.2-2-7.4-3.5c-2.2-1.6-4.1-3.6-5.5-6
							c-1.4-2.4-2.1-5.3-2.1-8.5v-0.2c0-3.2,0.7-6.1,2-8.6c1.3-2.5,3.2-4.6,5.5-6.3c2.3-1.6,5-2.9,8.2-3.8c3.1-0.8,6.6-1.3,10.4-1.3
							c4,0,7.5,0.2,10.5,0.7c2.2,0.3,4.3,0.8,6.4,1.3v-0.3c0-5.2-1.4-9-4.3-11.5c-2.9-2.6-7.1-3.9-12.5-3.9c-3.3,0-6.3,0.4-9,1.2
							c-2.7,0.8-5.4,1.9-7.8,3.1c-0.4,0.2-0.9,0.2-1.3,0.1c-0.4-0.2-0.8-0.5-1-0.9l-2-4.7c-0.3-0.8,0-1.7,0.8-2.1
							c3.2-1.5,6.4-2.8,9.6-3.7c3.3-0.9,7-1.4,11-1.4c7.6,0,13.8,2,18.2,5.9c4.5,4,6.8,9.9,6.8,17.7v34.9c0,0.9-0.7,1.6-1.6,1.6
							h-5.3c-0.9,0-1.6-0.7-1.6-1.6v-4.9c-0.2,0.2-0.4,0.4-0.7,0.7c-1.4,1.4-3.1,2.6-5,3.6c-1.9,1.1-4,1.9-6.4,2.6
							C812.4,128,809.8,128.3,807,128.3z M809.9,92.3c-3.5,0-6.7,0.4-9.6,1.2c-2.8,0.8-5.2,1.8-7.1,3.3c-1.9,1.4-3.4,3.1-4.5,5.1
							c-1.1,2-1.6,4.4-1.6,7v0.2c0,2.6,0.6,4.9,1.7,6.9c1.2,2,2.7,3.7,4.5,5c1.9,1.3,4,2.4,6.4,3c4.8,1.4,10,1.3,14.2,0.2
							c2.1-0.6,4-1.3,5.6-2.3c1.6-0.9,3.1-2,4.3-3.2c1.3-1.2,2.4-2.4,3.3-3.7c0.4-0.6,1.2-0.8,1.8-0.6c0.7,0.2,1.1,0.9,1.1,1.6v7.7
							h2V90.5c0-6.8-1.9-11.9-5.7-15.2c-3.8-3.4-9.2-5.1-16-5.1c-3.7,0-7.1,0.4-10.1,1.3c-2.6,0.7-5.1,1.7-7.7,2.8l0.7,1.7
							c2.2-1,4.5-1.9,6.8-2.6c3-0.9,6.3-1.3,9.9-1.3c6.2,0,11.1,1.6,14.6,4.7c3.6,3.2,5.5,7.9,5.5,14v2.4c0,0.5-0.2,1-0.6,1.3
							c-0.4,0.3-0.9,0.4-1.4,0.3c-2.7-0.7-5.4-1.3-8.2-1.7C817.1,92.5,813.7,92.3,809.9,92.3z M807.4,123.2c-2.3,0-4.5-0.3-6.6-0.9
							c-2.2-0.6-4.1-1.6-5.7-2.8c-1.7-1.2-3-2.7-4-4.5c-1-1.8-1.5-3.9-1.5-6.2c0-4.7,1.8-8.3,5.4-11c3.5-2.6,8.4-3.9,14.6-3.9
							c4.1,0,7.8,0.3,11,0.8c3.2,0.6,6,1.1,8.3,1.7c0.7,0.2,1.3,0.8,1.3,1.6v6.3c0,2.8-0.6,5.4-1.9,7.8c-1.2,2.3-2.9,4.3-5.1,5.9
							c-2.1,1.6-4.5,2.9-7.2,3.8C813.3,122.7,810.4,123.2,807.4,123.2z M809.6,97.2c-5.5,0-9.8,1.1-12.7,3.2
							c-2.8,2.1-4.1,4.7-4.1,8.1c0,2,0.4,3.5,1.1,4.8c0.8,1.4,1.8,2.5,3.1,3.5c1.3,1,2.9,1.7,4.7,2.3c4.3,1.3,9.2,1,13.3-0.4
							c2.4-0.8,4.5-1.9,6.3-3.2c1.7-1.3,3.1-3,4.2-4.9c1-1.9,1.5-4,1.5-6.2v-5c-2-0.5-4.3-0.9-6.9-1.4
							C817,97.4,813.5,97.2,809.6,97.2z"/>
					</g>
				</g>
			</g>
		</g>
		<g>
			<path class="st1" d="M102.8,69.7c-0.3-0.4-0.4-0.9-0.4-1.3l3.1-18.2h-1.9l-3.2,18.7c-0.1,0.8-0.8,1.4-1.6,1.4H76.1
				c-0.5,0-0.9-0.2-1.2-0.6c-0.3-0.4-0.5-0.9-0.4-1.3l3.1-18.2h-1.9l-3.2,18.7c-0.1,0.8-0.8,1.4-1.6,1.4H57.3v1.9h12.6
				c0.5,0,1,0.2,1.3,0.6s0.4,0.9,0.4,1.3L67.1,100c-0.1,0.8-0.8,1.4-1.6,1.4H52.9v1.9h11.6c0.5,0,0.9,0.2,1.3,0.6
				c0.3,0.4,0.4,0.9,0.4,1.3L63,123.7h1.9l3.3-19.2c0.1-0.8,0.8-1.4,1.6-1.4h22.7c0.5,0,1,0.2,1.3,0.6c0.3,0.4,0.5,0.9,0.4,1.3
				L91,123.7h1.9l3.3-19.2c0.1-0.8,0.8-1.4,1.6-1.4h13.4v-1.9H98.7c-0.5,0-1-0.2-1.3-0.6s-0.5-0.9-0.4-1.3l4.5-25.9
				c0.1-0.8,0.8-1.4,1.6-1.4h12.4v-1.9h-11.5C103.6,70.3,103.1,70,102.8,69.7z M99.6,74.1L95.1,100c-0.1,0.8-0.8,1.4-1.6,1.4H70.7
				c-0.5,0-0.9-0.2-1.3-0.6c-0.3-0.4-0.5-0.9-0.4-1.3l4.5-25.9c0.1-0.8,0.8-1.4,1.6-1.4h22.7c0.5,0,1,0.2,1.3,0.6
				C99.5,73.1,99.6,73.6,99.6,74.1z"/>
			<path class="st1" d="M135.8,123.7h2.4V90.6c0-0.9,0.7-1.6,1.6-1.6h41.8v-1.9h-41.8c-0.9,0-1.6-0.7-1.6-1.6V53.7
				c0-0.9,0.7-1.6,1.6-1.6h46.8v-1.9h-50.8V123.7z"/>
			<path class="st1" d="M247.7,77.9c-2.4-2.5-5.3-4.5-8.6-6c-3.2-1.5-6.9-2.2-10.8-2.2c-3.9,0-7.6,0.7-10.8,2.2
				c-3.3,1.5-6.2,3.5-8.7,6.1c-2.4,2.5-4.4,5.5-5.7,8.8c-1.3,3.3-2,6.9-2,10.6v0.2c0,3.7,0.7,7.3,2,10.6c1.3,3.3,3.2,6.2,5.6,8.7
				c2.4,2.5,5.3,4.5,8.5,6c3.2,1.5,6.9,2.2,10.8,2.2c3.9,0,7.6-0.8,10.8-2.2c3.3-1.5,6.2-3.5,8.7-6.1c2.4-2.5,4.4-5.5,5.7-8.8
				c1.3-3.3,2-6.9,2-10.6c0-3.9-0.7-7.5-2-10.8C252,83.3,250.1,80.4,247.7,77.9z M253,97.6c0,3.5-0.6,6.8-1.8,9.9
				c-1.2,3.1-2.9,5.8-5.1,8.1c-2.2,2.3-4.8,4.2-7.8,5.5c-3,1.4-6.3,2.1-9.9,2.1c-3.4,0-6.7-0.7-9.8-2c-3-1.3-5.7-3.2-7.9-5.5
				c-2.2-2.3-4-5.1-5.2-8.2c-1.2-3.1-1.9-6.5-1.9-10.1c0-3.7,0.6-7,1.8-10.1c1.2-3.1,2.9-5.8,5.1-8.1c2.2-2.3,4.8-4.2,7.8-5.5
				c6-2.7,13.5-2.7,19.6-0.1c3,1.3,5.7,3.2,7.9,5.5c2.2,2.3,4,5.1,5.3,8.2c1.2,3.1,1.9,6.5,1.9,10.1V97.6z"/>
			<path class="st1" d="M289.8,74.3c-2,1.4-3.8,3.1-5.4,5.1c-1.6,2-2.9,4.2-4,6.6c-0.3,0.7-1.1,1.1-1.8,0.9
				c-0.8-0.2-1.3-0.8-1.3-1.6V71h-2.1v52.7h2.1v-21.3c0-4.7,0.7-9,2.1-12.6c1.4-3.7,3.3-6.8,5.7-9.3c2.4-2.5,5.2-4.5,8.3-5.8
				c2.8-1.1,5.7-1.8,8.8-1.9v-2.6c-2,0.1-4,0.4-5.8,1C294,71.8,291.8,72.9,289.8,74.3z"/>
			<path class="st1" d="M354.9,77.6c-2.1-2.5-4.6-4.4-7.5-5.8c-2.9-1.4-6.2-2.1-9.9-2.1c-3.5,0-6.8,0.7-9.8,2.1
				c-3,1.4-5.7,3.4-7.9,5.9c-2.2,2.5-4,5.4-5.3,8.8c-1.3,3.3-1.9,7-1.9,10.8c0,4.4,0.7,8.2,2.1,11.6c1.4,3.4,3.3,6.3,5.6,8.7
				c2.4,2.4,5.2,4.3,8.3,5.6c3.1,1.3,6.4,2,9.9,2c5,0,9.3-0.9,12.7-2.8c3-1.6,5.7-3.7,8.2-6.1L358,115c-2.2,2.1-4.7,3.9-7.4,5.4
				c-3.3,1.8-7.3,2.7-12,2.7c-3,0-5.9-0.5-8.6-1.6c-2.7-1.1-5.2-2.6-7.3-4.7c-2.1-2-3.9-4.5-5.3-7.3c-1.4-2.9-2.2-6.2-2.5-9.9
				c0-0.5,0.1-0.9,0.4-1.2s0.8-0.5,1.2-0.5h44.9v-0.5c0-4-0.6-7.7-1.7-11C358.7,83,357,80,354.9,77.6z M358.7,95.9
				c-0.3,0.3-0.8,0.5-1.2,0.5h-40.8c-0.5,0-0.9-0.2-1.2-0.5c-0.3-0.3-0.5-0.8-0.4-1.2c0.2-3.2,1-6.3,2.2-9.2
				c1.2-2.8,2.8-5.3,4.8-7.4c2-2.1,4.2-3.8,6.9-4.9c2.6-1.2,5.5-1.8,8.5-1.8c3.5,0,6.6,0.7,9.2,2c2.6,1.3,4.9,3.1,6.7,5.3
				c1.8,2.2,3.2,4.7,4.1,7.4c1,2.7,1.6,5.6,1.8,8.6C359.1,95.1,359,95.5,358.7,95.9z"/>
			<path class="st1" d="M399.4,120c-0.3,0.6-0.9,1-1.5,1c-0.7,0-1.3-0.4-1.5-1L375.6,71H373l23.7,53.1h2.5L422.8,71h-2.4L399.4,120z
				"/>
			<path class="st1" d="M476.9,77.6c-2.1-2.5-4.6-4.4-7.5-5.8c-2.9-1.4-6.3-2.1-9.9-2.1c-3.5,0-6.9,0.7-9.8,2.1
				c-3,1.4-5.7,3.4-7.9,5.9c-2.2,2.5-4,5.4-5.3,8.8c-1.3,3.3-1.9,7-1.9,10.8c0,4.4,0.7,8.2,2.1,11.6c1.4,3.4,3.3,6.3,5.6,8.7
				c2.4,2.4,5.1,4.3,8.3,5.6c3.1,1.3,6.4,2,9.9,2c5,0,9.3-0.9,12.7-2.8c3-1.7,5.7-3.7,8.1-6.1L480,115c-2.2,2.1-4.7,3.9-7.4,5.4
				c-3.3,1.8-7.3,2.7-12,2.7c-3,0-5.9-0.5-8.6-1.6c-2.7-1.1-5.2-2.6-7.3-4.7c-2.1-2-3.9-4.5-5.3-7.3c-1.4-2.9-2.2-6.2-2.5-9.9
				c0-0.5,0.1-0.9,0.4-1.2s0.8-0.5,1.2-0.5h44.9v-0.5c0-4-0.6-7.7-1.7-11C480.6,83,479,80,476.9,77.6z M480.6,95.9
				c-0.3,0.3-0.8,0.5-1.2,0.5h-40.8c-0.4,0-0.9-0.2-1.2-0.5c-0.3-0.3-0.5-0.8-0.4-1.2c0.2-3.2,1-6.3,2.2-9.2
				c1.2-2.8,2.9-5.3,4.8-7.4c2-2.1,4.2-3.8,6.9-4.9c2.6-1.2,5.5-1.8,8.5-1.8c3.5,0,6.6,0.7,9.2,2c2.6,1.3,4.8,3.1,6.6,5.2
				c1.8,2.2,3.2,4.7,4.1,7.4c1,2.7,1.6,5.6,1.8,8.6C481.1,95.1,481,95.5,480.6,95.9z"/>
			<path class="st1" d="M517.1,74.3c-2,1.4-3.8,3.1-5.4,5.1c-1.6,2-2.9,4.2-3.9,6.6c-0.3,0.7-1.1,1.1-1.8,0.9
				c-0.8-0.2-1.3-0.8-1.3-1.6V71h-2.1v52.7h2.1v-21.3c0-4.7,0.7-9,2.1-12.6c1.4-3.7,3.3-6.8,5.7-9.3c2.4-2.5,5.2-4.5,8.3-5.8
				c2.8-1.1,5.7-1.8,8.8-1.9v-2.6c-2,0.1-4,0.4-5.8,1C521.2,71.8,519,72.9,517.1,74.3z"/>
			<path class="st1" d="M621.5,117.5c-0.2,0.7-0.9,1-1.6,1.1c-0.7,0-1.3-0.5-1.5-1.1L596.3,50h-2l-22.1,67.5
				c-0.2,0.7-0.8,1.1-1.5,1.1c-0.7,0-1.3-0.4-1.6-1.1l-23.8-67.3h-2.9l26.7,74.1h2.3l22.1-65.6c0.2-0.7,0.9-1.1,1.6-1.1
				c0.7,0,1.3,0.4,1.6,1.1l22.1,65.6h2.3l26.7-74.1h-2.4L621.5,117.5z"/>
			<path class="st1" d="M698.8,77.6c-2.1-2.5-4.6-4.4-7.5-5.8c-2.9-1.4-6.2-2.1-9.9-2.1c-3.6,0-6.9,0.7-9.8,2.1
				c-3,1.4-5.7,3.4-7.9,5.9c-2.2,2.5-4,5.4-5.3,8.8c-1.3,3.3-1.9,7-1.9,10.8c0,4.4,0.7,8.2,2.1,11.6c1.4,3.4,3.3,6.3,5.7,8.7
				c2.4,2.4,5.1,4.3,8.3,5.6c3.1,1.3,6.5,2,9.9,2c5,0,9.3-0.9,12.7-2.8c3-1.6,5.7-3.7,8.1-6.1l-1.3-1.1c-2.2,2.1-4.7,3.9-7.4,5.4
				c-3.3,1.8-7.3,2.7-12,2.7c-3,0-5.9-0.5-8.6-1.6c-2.7-1.1-5.2-2.6-7.3-4.7c-2.1-2-3.9-4.5-5.3-7.3c-1.4-2.9-2.2-6.2-2.5-9.9
				c0-0.5,0.1-0.9,0.4-1.2c0.3-0.3,0.7-0.5,1.2-0.5h44.9v-0.5c0-4-0.6-7.7-1.7-11C702.5,83,700.9,80.1,698.8,77.6z M702.5,95.9
				c-0.3,0.3-0.8,0.5-1.2,0.5h-40.8c-0.5,0-0.9-0.2-1.2-0.5c-0.3-0.3-0.5-0.8-0.4-1.2c0.2-3.2,1-6.3,2.2-9.2
				c1.2-2.8,2.8-5.3,4.8-7.4c1.9-2.1,4.2-3.8,6.9-4.9c2.6-1.2,5.5-1.8,8.5-1.8c3.5,0,6.6,0.7,9.2,2c2.6,1.3,4.9,3.1,6.7,5.2
				c1.8,2.2,3.2,4.7,4.1,7.4c1,2.7,1.6,5.6,1.8,8.6C703,95.1,702.8,95.5,702.5,95.9z"/>
			<path class="st1" d="M763.6,75.7c-1.8-1.9-4-3.3-6.5-4.4c-2.6-1-5.5-1.6-8.8-1.6c-4.8,0-8.6,1-11.6,3.1c-3,2.1-5.4,4.8-7.2,7.8
				c-0.4,0.6-1.1,1-1.9,0.8c-0.7-0.2-1.2-0.9-1.2-1.6V71h-2.1v52.7h2.1V93c0-3.1,0.5-6,1.6-8.7c1.1-2.6,2.6-5,4.5-6.9
				c1.9-1.9,4.1-3.4,6.7-4.5c2.5-1.1,5.3-1.6,8.3-1.6c6.2,0,11,1.9,14.4,5.8c3.3,3.8,5,8.8,5,15v31.6h2.1V91.1
				c0-3.2-0.5-6.1-1.4-8.7C766.8,79.8,765.4,77.5,763.6,75.7z"/>
			<path class="st1" d="M826.4,75.2c-3.8-3.4-9.2-5.1-16-5.1c-3.7,0-7.1,0.4-10.1,1.3c-2.6,0.7-5.1,1.7-7.6,2.8l0.7,1.7
				c2.2-1,4.5-1.9,6.8-2.6c3-0.9,6.3-1.3,9.9-1.3c6.2,0,11.1,1.6,14.6,4.7c3.6,3.2,5.5,7.9,5.5,14v2.4c0,0.5-0.2,1-0.6,1.3
				c-0.4,0.3-0.9,0.4-1.4,0.3c-2.7-0.7-5.4-1.3-8.2-1.7c-2.8-0.4-6.1-0.6-10-0.6c-3.5,0-6.7,0.4-9.6,1.1c-2.8,0.8-5.2,1.9-7.1,3.3
				c-1.9,1.4-3.4,3.1-4.5,5.2c-1.1,2-1.6,4.4-1.6,7v0.2c0,2.6,0.6,4.9,1.7,6.9c1.2,2,2.7,3.7,4.5,5c1.9,1.3,4.1,2.4,6.4,3
				c4.8,1.4,10,1.3,14.2,0.2c2.1-0.6,4-1.3,5.6-2.3c1.6-0.9,3.1-2,4.3-3.2c1.3-1.2,2.4-2.4,3.2-3.7c0.4-0.6,1.2-0.8,1.8-0.6
				c0.7,0.2,1.1,0.9,1.1,1.6v7.7h2V90.5C832.1,83.7,830.1,78.5,826.4,75.2z M830.2,104.4c0,2.8-0.6,5.4-1.9,7.8
				c-1.2,2.3-3,4.3-5.1,5.9c-2.1,1.6-4.5,2.9-7.2,3.8c-2.7,0.9-5.6,1.3-8.6,1.3c-2.3,0-4.5-0.3-6.6-0.9c-2.2-0.6-4.1-1.6-5.7-2.8
				c-1.7-1.2-3-2.7-4-4.5c-1-1.8-1.5-3.9-1.5-6.2c0-4.7,1.8-8.3,5.4-11c3.5-2.6,8.4-3.9,14.7-3.9c4.1,0,7.8,0.3,11,0.8
				c3.2,0.5,6,1.1,8.3,1.7c0.7,0.2,1.2,0.8,1.2,1.6V104.4z"/>
		</g>
	</g>
</g>
</svg>
