<svg width="29" height="29" viewBox="0 0 29 29" fill="none" xmlns="http://www.w3.org/2000/svg">
<path d="M14.5005 3.0391C18.2359 3.0391 18.6738 3.05251 20.1483 3.11953C21.5111 3.18209 22.2528 3.40997 22.7443 3.6021C23.3967 3.85679 23.8614 4.16062 24.3529 4.64766C24.8444 5.13916 25.1438 5.60385 25.3984 6.25621C25.5906 6.74771 25.8185 7.48943 25.881 8.85223C25.948 10.3267 25.9614 10.7691 25.9614 14.5C25.9614 18.231 25.948 18.6733 25.881 20.1478C25.8185 21.5106 25.5906 22.2524 25.3984 22.7439C25.1438 23.3962 24.8399 23.8609 24.3529 24.3524C23.8658 24.8394 23.3967 25.1433 22.7443 25.398C22.2528 25.5901 21.5111 25.818 20.1483 25.8805C18.6738 25.9476 18.2315 25.961 14.5005 25.961C10.7696 25.961 10.3272 25.9476 8.8527 25.8805C7.4899 25.818 6.74818 25.5901 6.25668 25.398C5.60432 25.1433 5.13964 24.8394 4.64814 24.3524C4.16111 23.8609 3.85726 23.3962 3.60257 22.7439C3.41044 22.2524 3.18258 21.5106 3.12002 20.1478C3.053 18.6733 3.0396 18.231 3.0396 14.5C3.0396 10.7691 3.053 10.3267 3.12002 8.85223C3.18258 7.48943 3.41044 6.74771 3.60257 6.25621C3.85726 5.60385 4.16111 5.13916 4.64814 4.64766C5.13964 4.15616 5.60432 3.85679 6.25668 3.6021C6.74818 3.40997 7.4899 3.18209 8.8527 3.11953C10.3272 3.05251 10.7696 3.0391 14.5005 3.0391ZM14.5005 0.519043C10.7025 0.519043 10.2289 0.536915 8.73655 0.603938C7.24864 0.670961 6.23434 0.907776 5.34071 1.25183C4.42026 1.60928 3.6428 2.08738 2.86533 2.86485C2.08787 3.64231 1.60978 4.42425 1.25232 5.34023C0.908271 6.2294 0.671451 7.24368 0.604428 8.73606C0.537405 10.2284 0.519531 10.7021 0.519531 14.5C0.519531 18.298 0.537405 18.7716 0.604428 20.264C0.671451 21.7519 0.908271 22.7662 1.25232 23.6598C1.60978 24.5803 2.08787 25.3577 2.86533 26.1352C3.6428 26.9127 4.42026 27.3908 5.34071 27.7482C6.22988 28.0923 7.24417 28.3291 8.73655 28.3961C10.2289 28.4631 10.7025 28.481 14.5005 28.481C18.2985 28.481 18.7721 28.4631 20.2645 28.3961C21.7524 28.3291 22.7711 28.0923 23.6603 27.7482C24.5808 27.3908 25.3582 26.9127 26.1357 26.1352C26.9132 25.3577 27.3913 24.5758 27.7487 23.6598C28.0928 22.7707 28.3296 21.7564 28.3966 20.264C28.4636 18.7716 28.4815 18.298 28.4815 14.5C28.4815 10.7021 28.4636 10.2284 28.3966 8.73606C28.3296 7.24815 28.0928 6.23387 27.7487 5.34023C27.3913 4.41978 26.9132 3.64231 26.1357 2.86485C25.3582 2.08738 24.5808 1.60928 23.6603 1.25183C22.7711 0.907776 21.7569 0.670961 20.2645 0.603938C18.7721 0.536915 18.2985 0.519043 14.5005 0.519043Z" fill="#00FFF2"/>
<path d="M14.5007 7.31958C10.5374 7.31958 7.32031 10.5322 7.32031 14.5C7.32031 18.4677 10.5329 21.6804 14.5007 21.6804C18.4685 21.6804 21.6811 18.4677 21.6811 14.5C21.6811 10.5322 18.4685 7.31958 14.5007 7.31958ZM14.5007 19.1603C11.927 19.1603 9.84038 17.0737 9.84038 14.5C9.84038 11.9263 11.927 9.83964 14.5007 9.83964C17.0744 9.83964 19.161 11.9263 19.161 14.5C19.161 17.0737 17.0744 19.1603 14.5007 19.1603Z" fill="#00FFF2"/>
<path d="M23.6427 7.03837C23.6427 7.96328 22.8921 8.71841 21.9672 8.71841C21.0422 8.71841 20.2871 7.96775 20.2871 7.03837C20.2871 6.10898 21.0378 5.36279 21.9672 5.36279C22.8965 5.36279 23.6427 6.11345 23.6427 7.03837Z" fill="#00FFF2"/>
</svg>
