<svg width="28" height="20" viewBox="0 0 28 20" fill="none" xmlns="http://www.w3.org/2000/svg">
<path d="M0 17.7297C2.54169 19.1623 5.56224 20 8.80381 20C19.4678 20 25.4951 12.0801 25.1314 4.98179C26.2549 4.26953 27.2264 3.38325 28 2.36746C26.9686 2.76811 25.8635 3.03925 24.6986 3.16066C25.8819 2.53743 26.7936 1.54593 27.2218 0.368272C26.1122 0.946985 24.8827 1.36787 23.5751 1.5945C22.5252 0.611088 21.0334 0 19.3804 0C15.6737 0 12.9479 3.03926 13.7859 6.19992C9.01102 5.98948 4.77948 3.97815 1.94771 0.922703C0.442032 3.19304 1.16494 6.1635 3.72505 7.66491C2.78112 7.64063 1.89706 7.40996 1.1235 7.03359C1.06364 9.37272 2.96991 11.5621 5.73261 12.0478C4.92222 12.242 4.03815 12.2865 3.14027 12.1327C3.86778 14.14 5.99046 15.5969 8.50452 15.6414C6.09176 17.3047 3.04818 18.0494 0 17.7337V17.7297Z" fill="#00FFF2"/>
</svg>
