<svg width="45" height="45" viewBox="0 0 45 45" fill="none" xmlns="http://www.w3.org/2000/svg">
<g clip-path="url(#clip0_816_6169)">
<path d="M22.4898 44.5794C10.3136 44.5794 0.400391 34.6662 0.400391 22.49C0.400391 10.3137 10.3136 0.400513 22.4898 0.400513C34.6661 0.400513 44.5793 10.3137 44.5793 22.49C44.5793 34.6662 34.6661 44.5794 22.4898 44.5794ZM22.4898 1.54203C10.9344 1.54203 1.54191 10.9346 1.54191 22.49C1.54191 34.0454 10.9344 43.4379 22.4898 43.4379C34.0453 43.4379 43.4378 34.0454 43.4378 22.49C43.4378 10.9346 34.0453 1.54203 22.4898 1.54203Z" fill="#00FFF2"/>
<path fill-rule="evenodd" clip-rule="evenodd" d="M34.3058 21.9092C34.1456 15.6809 29.0188 10.6942 22.7304 10.6942C16.442 10.6942 11.4153 15.5807 11.1549 21.6889C11.1549 21.8491 11.1549 22.0293 11.1549 22.1895C11.1549 24.3725 11.7557 26.3951 12.8172 28.1375L10.7344 34.3057L17.1429 32.263C18.8051 33.1842 20.7077 33.6849 22.7504 33.6849C29.1589 33.6849 34.3459 28.538 34.3459 22.1895C34.3459 15.8411 34.3459 21.9893 34.3459 21.8891L34.3058 21.9092ZM22.7103 31.8624C20.7277 31.8624 18.8852 31.2817 17.3432 30.2603L13.5982 31.4619L14.8198 27.8771C13.6583 26.275 12.9573 24.3124 12.9573 22.2096C12.9573 20.1068 12.9573 21.5887 12.9974 21.2683C13.478 16.3818 17.6436 12.5367 22.6903 12.5367C27.737 12.5367 32.0027 16.4619 32.4033 21.4486C32.4233 21.6889 32.4433 21.9492 32.4433 22.2096C32.4433 27.5367 28.0775 31.8825 22.6903 31.8825L22.7103 31.8624Z" fill="#00FFF2"/>
<path fill-rule="evenodd" clip-rule="evenodd" d="M28.0171 24.5126C27.7367 24.3724 26.3349 23.6915 26.0745 23.5914C25.8142 23.4913 25.6339 23.4512 25.4337 23.7316C25.2334 24.0119 24.6927 24.6528 24.5325 24.833C24.3723 25.0133 24.192 25.0533 23.9116 24.8931C23.6313 24.7529 22.71 24.4525 21.6286 23.4913C20.7875 22.7503 20.2067 21.829 20.0465 21.5487C19.8863 21.2683 20.0465 21.1081 20.1667 20.9679C20.3068 20.8277 20.447 20.6274 20.5872 20.4672C20.6273 20.4272 20.6473 20.3671 20.6873 20.327C20.7474 20.2269 20.8075 20.1268 20.8676 19.9866C20.9677 19.8063 20.9076 19.6261 20.8476 19.4859C20.7875 19.3457 20.2067 17.9639 19.9664 17.3831C19.7261 16.8224 19.4857 16.9225 19.3255 16.9225C19.1653 16.9225 18.9651 16.9025 18.7848 16.9025C18.6046 16.9025 18.2841 16.9625 18.0238 17.2629C17.7634 17.5633 17.0225 18.2242 17.0225 19.6261C17.0225 21.028 17.0825 20.267 17.1626 20.5874C17.443 21.5887 18.0639 22.4098 18.184 22.55C18.3242 22.7302 20.1466 25.6742 23.0305 26.8157C25.9143 27.9372 25.9143 27.5567 26.435 27.5166C26.9557 27.4766 28.1173 26.8357 28.3576 26.1748C28.5979 25.5139 28.5979 24.9532 28.5178 24.833C28.4577 24.7129 28.2574 24.6528 27.9771 24.5126H28.0171Z" fill="#00FFF2"/>
</g>
<defs>
<clipPath id="clip0_816_6169">
<rect width="45" height="45" fill="white"/>
</clipPath>
</defs>
</svg>
