<svg width="30" height="30" viewBox="0 0 30 30" fill="none" xmlns="http://www.w3.org/2000/svg">
<path fill-rule="evenodd" clip-rule="evenodd" d="M25.6288 4.35944C22.8091 1.54961 19.0588 0.00142558 15.063 0C6.82925 0 0.128205 6.66818 0.12534 14.8646C0.123908 17.4848 0.812205 20.0423 2.11933 22.2962L0 30L7.91863 27.9329C10.1003 29.1176 12.5569 29.7412 15.0566 29.742H15.063C23.2953 29.742 29.9972 23.0731 30 14.8767C30.0014 10.9043 28.4493 7.16998 25.6288 4.36015V4.35944ZM15.063 27.2315H15.058C12.8305 27.2309 10.6453 26.6349 8.73875 25.5094L8.28535 25.2414L3.58617 26.4681L4.84028 21.9084L4.54519 21.4408C3.30253 19.4735 2.64575 17.1996 2.64718 14.8653C2.65005 8.05313 8.21945 2.51045 15.0681 2.51045C18.3842 2.51188 21.5012 3.79847 23.8454 6.13429C26.1897 8.46941 27.4796 11.5744 27.4782 14.8753C27.4753 21.6882 21.9059 27.2309 15.063 27.2309V27.2315ZM21.8729 17.9781C21.4998 17.792 19.6648 16.8939 19.3224 16.7699C18.9801 16.6458 18.7316 16.5839 18.483 16.9559C18.2345 17.328 17.519 18.1648 17.3013 18.4121C17.0835 18.6602 16.8657 18.6909 16.4926 18.5048C16.1195 18.3187 14.9169 17.9267 13.4909 16.6615C12.3815 15.6764 11.6323 14.4604 11.4146 14.0883C11.1968 13.7163 11.3917 13.5152 11.5778 13.3306C11.7454 13.1639 11.951 12.8966 12.1379 12.6799C12.3249 12.4632 12.3865 12.3078 12.5111 12.0604C12.6357 11.8124 12.5734 11.5957 12.4803 11.4096C12.3872 11.2236 11.6409 9.39528 11.3293 8.65186C11.0263 7.92768 10.7184 8.02605 10.4899 8.01393C10.2722 8.00323 10.0237 8.0011 9.77442 8.0011C9.52517 8.0011 9.12117 8.09376 8.77883 8.46584C8.4365 8.83788 7.47242 9.73671 7.47242 11.5643C7.47242 13.3919 8.80967 15.159 8.99658 15.407C9.1835 15.6551 11.6287 19.4065 15.3724 21.016C16.2628 21.3987 16.9582 21.6275 17.5003 21.7986C18.3943 22.0816 19.2078 22.0417 19.851 21.9462C20.568 21.8393 22.0592 21.0473 22.37 20.1799C22.6808 19.3124 22.6808 18.5682 22.5878 18.4135C22.4947 18.2589 22.2454 18.1655 21.8723 17.9795L21.8729 17.9781Z" fill="#00FFF2"/>
</svg>
