<svg width="36" height="25" viewBox="0 0 36 25" fill="none" xmlns="http://www.w3.org/2000/svg">
<path d="M34.5986 3.82574C34.1999 2.32758 33.0259 1.14483 31.5365 0.741814C28.8337 0.0146367 18.0005 0.0146484 18.0005 0.0146484C18.0005 0.0146484 7.16733 0.0146367 4.46451 0.741814C2.97511 1.14483 1.80111 2.3232 1.40248 3.82574C0.679685 6.54608 0.679688 12.219 0.679688 12.219C0.679688 12.219 0.679685 17.8918 1.40248 20.6121C1.80111 22.1103 2.97511 23.2931 4.46451 23.6961C7.16733 24.4233 18.0005 24.4233 18.0005 24.4233C18.0005 24.4233 28.8337 24.4233 31.5365 23.6961C33.0259 23.2931 34.1999 22.1147 34.5986 20.6121C35.3214 17.8918 35.3214 12.219 35.3214 12.219C35.3214 12.219 35.3214 6.54608 34.5986 3.82574Z" fill="#00FFF2"/>
<path d="M14.457 17.3705V7.06738L23.5117 12.219L14.457 17.3705Z" fill="#171717"/>
</svg>
